HIERARCHY
ROOT Hips
{
    OFFSET 0.000000 0.000000 0.000000
    CHANNELS 6 Xposition Yposition Zposition Zrotation Xrotation Yrotation
    JOINT Spine
    {
        OFFSET -0.000000 14.517291 0.000000
        CHANNELS 3 Zrotation Xrotation Yrotation
        JOINT Spine1
        {
            OFFSET -0.000000 37.558300 0.000000
            CHANNELS 3 Zrotation Xrotation Yrotation
            JOINT Neck
            {
                OFFSET -0.000000 37.404057 3.400369
                CHANNELS 3 Zrotation Xrotation Yrotation
                JOINT Head
                {
                    OFFSET -0.000000 24.785618 -3.540803
                    CHANNELS 3 Zrotation Xrotation Yrotation
                    End Site
                    {
                        OFFSET -0.000000 35.408028 0.000000
                    }
                }
            }
            JOINT LeftShoulder
            {
                OFFSET 6.992933 33.973492 -0.192664
                CHANNELS 3 Zrotation Xrotation Yrotation
                JOINT LeftArm
                {
                    OFFSET 21.527611 0.000000 0.000000
                    CHANNELS 3 Zrotation Xrotation Yrotation
                    JOINT LeftForeArm
                    {
                        OFFSET 56.353916 0.000000 0.000000
                        CHANNELS 3 Zrotation Xrotation Yrotation
                        JOINT LeftHand
                        {
                            OFFSET 47.774071 0.000000 0.000000
                            CHANNELS 3 Zrotation Xrotation Yrotation
                            End Site
                            {
                                OFFSET 26.556021 0.000000 0.000000
                            }
                        }
                    }
                }
            }
            JOINT RightShoulder
            {
                OFFSET -7.065357 33.973492 -0.192664
                CHANNELS 3 Zrotation Xrotation Yrotation
                JOINT RightArm
                {
                    OFFSET -21.527611 0.000000 0.000000
                    CHANNELS 3 Zrotation Xrotation Yrotation
                    JOINT RightForeArm
                    {
                        OFFSET -56.353916 0.000000 0.000000
                        CHANNELS 3 Zrotation Xrotation Yrotation
                        JOINT RightHand
                        {
                            OFFSET -47.774071 0.000000 0.000000
                            CHANNELS 3 Zrotation Xrotation Yrotation
                            End Site
                            {
                                OFFSET -26.556021 0.000000 0.000000
                            }
                        }
                    }
                }
            }
        }
    }
    JOINT LeftUpLeg
    {
        OFFSET 17.704014 0.000000 0.000000
        CHANNELS 3 Zrotation Xrotation Yrotation
        JOINT LeftLeg
        {
            OFFSET -0.000000 -81.181816 0.000000
            CHANNELS 3 Zrotation Xrotation Yrotation
            JOINT LeftFoot
            {
                OFFSET -0.000000 -62.821102 0.000000
                CHANNELS 3 Zrotation Xrotation Yrotation
                JOINT LeftToeBase
                {
                    OFFSET -0.000000 -11.507608 26.556021
                    CHANNELS 3 Zrotation Xrotation Yrotation
                    End Site
                    {
                        OFFSET -0.000000 0.000000 7.081605
                    }
                }
            }
        }
    }
    JOINT RightUpLeg
    {
        OFFSET -17.704014 0.000000 0.000000
        CHANNELS 3 Zrotation Xrotation Yrotation
        JOINT RightLeg
        {
            OFFSET -0.000000 -81.181816 0.000000
            CHANNELS 3 Zrotation Xrotation Yrotation
            JOINT RightFoot
            {
                OFFSET -0.000000 -62.821102 0.000000
                CHANNELS 3 Zrotation Xrotation Yrotation
                JOINT RightToeBase
                {
                    OFFSET -0.000000 -11.507608 26.556021
                    CHANNELS 3 Zrotation Xrotation Yrotation
                    End Site
                    {
                        OFFSET -0.000000 0.000000 7.081605
                    }
                }
            }
        }
    }
}
MOTION
Frames:    9
Frame Time:    0.008333
-7.567119    157.049316    -9.328179    -0.042210    6.339324    4.661194    0.682240    2.037628    12.263479    -3.468899    -0.632016    4.073253    -3.742819    2.856686    -11.136797    13.768629    -9.177808    -8.106032    -1.223927    2.794671    -4.857220    -41.209850    13.099592    -47.465546    -3.692805    -27.575314    -130.236465    -4.419893    -34.163998    -7.566040    -3.765625    13.302394    4.196704    40.208755    12.959225    55.524418    -43.472183    -35.686016    47.974506    13.414399    -13.696251    32.050312    -1.469633    -29.788157    -23.273071    -15.614532    33.646301    -19.947905    5.378623    -9.592179    36.979439    0.000000    0.000000    0.000000    -5.445510    11.442548    -15.563161    1.726596    24.838913    -4.041108    13.294856    -7.435345    -10.580766    0.000000    0.000000    0.000000    
-7.486897    157.081482    -9.010424    -0.044335    6.251990    4.780927    0.721926    2.003232    12.211274    -3.430923    -0.591239    4.057452    -3.827018    2.860286    -11.157695    13.817328    -9.102766    -8.115618    -1.271877    2.784329    -4.852834    -41.152077    13.103530    -47.365055    -3.746752    -27.527405    -130.254517    -4.257040    -34.229111    -7.524086    -3.804018    13.310043    4.183320    40.254440    12.804933    55.436195    -43.277023    -35.623821    48.169624    13.418090    -13.628257    32.053074    -1.512514    -29.569782    -23.130684    -15.511868    33.649635    -20.087271    5.476985    -9.629839    36.870647    0.000000    0.000000    0.000000    -5.511824    11.424590    -15.501967    1.705750    24.885481    -3.868556    13.410549    -7.635250    -10.393454    0.000000    0.000000    0.000000    
-7.426724    157.112701    -8.700644    -0.057039    6.182158    4.947279    0.757414    1.942477    12.132644    -3.414681    -0.556810    4.032400    -3.818969    2.895219    -11.158213    13.814351    -9.058425    -8.124228    -1.252722    2.804236    -4.867828    -41.168560    13.092485    -47.334248    -3.758017    -27.498207    -130.226059    -4.234114    -34.218906    -7.524874    -3.768297    13.265740    4.182922    40.197037    12.707600    55.296207    -43.099876    -35.635574    48.285744    13.447025    -13.664825    32.101021    -1.560668    -29.375475    -23.052559    -15.426185    33.644684    -20.216053    5.572710    -9.656739    36.780796    0.000000    0.000000    0.000000    -5.559475    11.436846    -15.391919    1.755025    24.856403    -3.824952    13.539467    -7.787132    -10.212059    0.000000    0.000000    0.000000    
-7.382006    157.145370    -8.412306    -0.064080    6.113427    5.090380    0.772825    1.900901    12.075146    -3.395355    -0.532201    4.014036    -3.770167    2.921345    -11.169005    13.759046    -9.021751    -8.158896    -1.235926    2.815716    -4.880488    -41.154461    13.131945    -47.327671    -3.726467    -27.541435    -130.188934    -4.283653    -34.192970    -7.563859    -3.750469    13.259928    4.149451    40.165436    12.614271    55.217110    -43.001411    -35.597633    48.366161    13.414637    -13.647650    32.052895    -1.588903    -29.186251    -23.002577    -15.389227    33.623882    -20.321733    5.662404    -9.698107    36.738773    0.000000    0.000000    0.000000    -5.608616    11.415033    -15.390120    1.695712    24.894068    -3.573780    13.679612    -7.919318    -10.074444    0.000000    0.000000    0.000000    
-7.340930    157.173019    -8.118871    -0.084179    6.045193    5.264113    0.804913    1.819817    12.000207    -3.356703    -0.473973    3.990911    -3.747813    2.987003    -11.194007    13.719302    -9.006849    -8.200502    -1.250044    2.834053    -4.894726    -41.097847    13.190440    -47.338581    -3.695271    -27.650629    -130.135941    -4.372873    -34.226528    -7.551909    -3.759507    13.256184    4.149640    40.176418    12.453349    55.106247    -42.812290    -35.549240    48.504456    13.428161    -13.613778    32.094669    -1.622703    -29.005280    -23.001890    -15.348053    33.605255    -20.455608    5.758465    -9.724869    36.715378    0.000000    0.000000    0.000000    -5.666542    11.342247    -15.246297    1.706627    25.072313    -3.510272    13.893695    -8.040008    -9.870564    0.000000    0.000000    0.000000    
-7.318486    157.204514    -7.871923    -0.103698    5.989833    5.413731    0.823473    1.776175    11.959747    -3.336182    -0.451911    3.978127    -3.749202    3.008658    -11.228140    13.748475    -8.946295    -8.237433    -1.236691    2.853569    -4.934690    -41.080414    13.193325    -47.355167    -3.708083    -27.637899    -130.097916    -4.272164    -34.238937    -7.501142    -3.734875    13.230671    4.116459    40.082462    12.389666    55.002235    -42.751762    -35.559029    48.503265    13.464146    -13.648591    32.084282    -1.639364    -28.854061    -22.983723    -15.323257    33.590904    -20.577393    5.848565    -9.738881    36.712608    0.000000    0.000000    0.000000    -5.701389    11.315885    -15.168874    1.671724    25.107576    -3.349746    14.130287    -8.227595    -9.607507    0.000000    0.000000    0.000000    
-7.313005    157.238846    -7.605907    -0.116273    5.896131    5.595066    0.815569    1.740948    11.891881    -3.297436    -0.413885    3.956613    -3.766954    3.039191    -11.259501    13.827868    -8.878839    -8.259637    -1.207525    2.873569    -4.977812    -41.086231    13.177279    -47.358082    -3.724244    -27.561586    -130.063705    -4.172583    -34.198681    -7.445385    -3.695361    13.203051    4.129655    40.070351    12.251469    54.834404    -42.582211    -35.552883    48.647060    13.403007    -13.689678    32.000130    -1.668475    -28.649853    -23.032780    -15.290794    33.552803    -20.703089    5.922115    -9.776677    36.723469    0.000000    0.000000    0.000000    -5.717613    11.436014    -15.063114    1.664409    24.942530    -3.260899    14.401266    -8.369765    -9.197306    0.000000    0.000000    0.000000    
-7.319013    157.284195    -7.382448    -0.143728    5.833477    5.761921    0.824753    1.706438    11.837239    -3.279358    -0.403772    3.938711    -3.774814    3.081535    -11.303452    13.905513    -8.811990    -8.297026    -1.164660    2.886721    -5.024175    -41.082073    13.203989    -47.365543    -3.717645    -27.560741    -130.013412    -4.269932    -34.172409    -7.476947    -3.656806    13.212326    4.123512    40.072723    12.065513    54.723984    -42.377556    -35.509609    48.773090    13.386735    -13.686172    32.033875    -1.675957    -28.492798    -23.058289    -15.253745    33.516308    -20.839743    5.973631    -9.783322    36.740444    0.000000    0.000000    0.000000    -5.747918    11.337676    -14.864835    1.669626    25.092587    -3.255363    14.615417    -8.443601    -8.696780    0.000000    0.000000    0.000000    
-7.331490    157.334381    -7.153963    -0.166744    5.728954    5.919052    0.805758    1.684235    11.787478    -3.181913    -0.347083    3.923903    -3.814461    3.117885    -11.346757    13.941353    -8.768653    -8.336074    -1.190524    2.967089    -4.993408    -41.005001    13.218519    -47.492943    -3.700862    -27.573305    -129.931702    -4.317452    -34.137779    -7.524164    -3.688607    13.227239    4.103264    40.002632    11.953185    54.676853    -42.328613    -35.461407    48.734062    13.357837    -13.682908    32.015831    -1.679099    -28.280954    -23.080923    -15.206947    33.462833    -20.937920    6.012170    -9.807490    36.745575    0.000000    0.000000    0.000000    -5.766127    11.357744    -14.740076    1.624716    25.100281    -3.046207    14.842051    -8.487872    -8.186530    0.000000    0.000000    0.000000    
